<?xml version="1.0" encoding="utf-8"?>
<!-- Generator: Adobe Illustrator 16.0.0, SVG Export Plug-In . SVG Version: 6.00 Build 0)  -->
<!DOCTYPE svg PUBLIC "-//W3C//DTD SVG 1.1//EN" "http://www.w3.org/Graphics/SVG/1.1/DTD/svg11.dtd">
<svg version="1.1" id="Layer_1" xmlns="http://www.w3.org/2000/svg" xmlns:xlink="http://www.w3.org/1999/xlink" x="0px" y="0px"
	 width="439.001px" height="185.667px" viewBox="0 0 439.001 185.667" style="enable-background:new 0 0 439.001 185.667;"
	 xml:space="preserve">
<circle style="fill:#FFFFFF;" cx="91.315" cy="92.788" r="81.315"/>
<circle style="fill:#FFFFFF;" cx="348.969" cy="92.788" r="81.315"/>
<path style="fill:#454545;" d="M46.958,90.802l-8.527,0.364l1.278,3.416l-2.941,1.1l4.768,12.748l2.941-1.1l2.751,7.354
	l21.514-8.047l-19.119-8.71L46.958,90.802z M29.92,96.007l6.234,16.671l4.383-1.639l-6.235-16.67L29.92,96.007z M150.864,108.524
	c-1.445,0-2.617,1.172-2.617,2.618v2.576c-0.321-0.141-0.674-0.221-1.047-0.221c-1.445,0-2.617,1.172-2.617,2.618v2.879h-33.789
	c-0.062-0.296-0.139-0.592-0.248-0.885c-0.941-2.515-3.385-4.028-5.931-3.904l-5.036-13.465c1.636-1.556,2.307-3.963,1.57-6.224
	l19.591-7.327l12.017-15.794L125.278,51.4L21.823,90.093l15.991-0.579l0.04,0.104l9.607-0.411l0.57-0.024l2.835,7.583l19.956,9.092
	l19.075-7.134c0.928,2.188,3.014,3.565,5.269,3.666l5.192,13.883c-1.395,1.612-1.888,3.916-1.089,6.052
	c1.165,3.114,4.633,4.695,7.747,3.53c1.171-0.438,2.125-1.203,2.798-2.151h34.769v2.879c0,1.446,1.172,2.618,2.617,2.618
	c0.374,0,0.726-0.081,1.047-0.221v2.576c0,1.446,1.172,2.618,2.617,2.618c1.446,0,2.618-1.172,2.618-2.618v-20.415
	C153.482,109.696,152.311,108.524,150.864,108.524z M56.192,92.329c-0.812,0.304-1.717-0.109-2.021-0.92
	c-0.304-0.812,0.108-1.718,0.921-2.021c0.812-0.303,1.717,0.109,2.021,0.921C57.417,91.12,57.004,92.025,56.192,92.329z"/>
<g>
	<g>
		<g id="XMLID_1_">
			<g>
				<path style="fill:#454545;" d="M328.273,129.108h41.391V54.877h-41.391V129.108z M348.969,131.064
					c-1.619,0-2.93,1.312-2.93,2.93c0,1.619,1.311,2.931,2.93,2.931s2.931-1.312,2.931-2.931
					C351.899,132.375,350.588,131.064,348.969,131.064z M372.411,53.412v78.751c0,4.857-1.546,7.326-5.86,7.326h-35.163
					c-4.315,0-5.861-3.202-5.861-8.059V53.412c0-4.857,1.546-7.326,5.861-7.326h35.814
					C371.518,46.086,372.411,48.555,372.411,53.412z M355.137,50.906c0-0.3-0.249-0.549-0.549-0.549h-7.575
					c-0.3,0-0.549,0.249-0.549,0.549c0,0.308,0.249,0.55,0.549,0.55h7.575C354.888,51.456,355.137,51.214,355.137,50.906z
					 M343.899,50.936c0.015-0.3-0.22-0.564-0.52-0.579c-0.301-0.015-0.558,0.22-0.579,0.527c-0.015,0.301,0.22,0.557,0.527,0.572
					C343.629,51.471,343.885,51.236,343.899,50.936z"/>
				<circle style="fill:#454545;" cx="348.969" cy="133.994" r="2.93"/>
			</g>
			<g>
				<circle style="fill:none;stroke:#FFFEF8;stroke-miterlimit:10;" cx="348.969" cy="133.994" r="2.93"/>
			</g>
		</g>
	</g>
	<rect x="328.273" y="119.709" style="fill:#CCCCCC;" width="41.391" height="9.399"/>
	<rect x="329.739" y="110.552" style="fill:#CCCCCC;" width="38.46" height="7.567"/>
	<rect x="329.739" y="101.578" style="fill:#CCCCCC;" width="38.46" height="7.568"/>
	<rect x="329.739" y="56.708" style="fill:#CCCCCC;" width="38.46" height="43.039"/>
</g>
<polygon style="fill:#FFFFFF;" points="166.63,74.271 224.387,74.271 224.387,50.788 262.334,94.096 224.741,134.788 
	224.741,113.11 166.63,113.11 "/>
</svg>
